<svg xmlns="http://www.w3.org/2000/svg" version="1.1" xmlns:xlink="http://www.w3.org/1999/xlink" xmlns:svgjs="http://svgjs.dev/svgjs" width="1000" height="750" viewBox="0 0 1000 750"><rect width="1000" height="750" fill="#ffffff"></rect><g transform="matrix(0.834,0,0,0.834,82.49454545454546,115.4193570850203)"><svg viewBox="0 0 396 247" data-background-color="#ffffff" preserveAspectRatio="xMidYMid meet" height="623" width="1000" xmlns="http://www.w3.org/2000/svg" xmlns:xlink="http://www.w3.org/1999/xlink"><g id="tight-bounds" transform="matrix(1,0,0,1,0.2400000000000091,-0.09999999999999432)"><svg viewBox="0 0 395.52 247.2" height="247.2" width="395.52"><g><svg></svg></g><g><svg viewBox="0 0 395.52 247.2" height="247.2" width="395.52"><g transform="matrix(1,0,0,1,39.55199999999999,91.80914716981133)"><svg viewBox="0 0 316.416 63.58170566037735" height="63.58170566037735" width="316.416"><g><svg viewBox="0 0 316.416 63.58170566037735" height="63.58170566037735" width="316.416"><g><svg viewBox="0 0 316.416 63.58170566037735" height="63.58170566037735" width="316.416"><g><svg viewBox="0 0 316.416 63.58170566037735" height="63.58170566037735" width="316.416"><g id="textblocktransform"><svg viewBox="0 0 316.416 63.58170566037735" height="63.58170566037735" width="316.416" id="textblock"><g><svg viewBox="0 0 316.416 63.58170566037735" height="63.58170566037735" width="316.416"><g transform="matrix(1,0,0,1,0,0)"><svg width="316.416" viewBox="1.350000023841858 -31.549999237060547 211.97999572753906 42.599998474121094" height="63.58170566037735" data-palette-color="#89939e"><path d="M23.85-24L23.85-12.05Q23.85-9.05 24.25-7.05 24.65-5.05 25.2-3.85L25.2-3.85Q25.8-2.4 26.6-1.6L26.6-1.6 20.25 0.4Q19.7-0.1 19.25-0.85L19.25-0.85Q18.85-1.5 18.48-2.43 18.1-3.35 17.85-4.6L17.85-4.6Q17-2.25 15.35-0.98 13.7 0.3 11 0.3L11 0.3Q8.55 0.3 6.73-0.6 4.9-1.5 3.7-3.13 2.5-4.75 1.93-7.05 1.35-9.35 1.35-12.15L1.35-12.15Q1.35-15 2.27-17.45 3.2-19.9 4.85-21.68 6.5-23.45 8.8-24.45 11.1-25.45 13.9-25.45L13.9-25.45Q15.45-25.45 17.2-25.23 18.95-25 20.4-24.73 21.85-24.45 22.83-24.23 23.8-24 23.85-24L23.85-24ZM12.3-5.5Q13.05-5.5 13.73-6.15 14.4-6.8 14.9-7.9 15.4-9 15.68-10.43 15.95-11.85 15.95-13.45L15.95-13.45 15.95-19.25Q15.6-19.4 14.98-19.53 14.35-19.65 13.9-19.65L13.9-19.65Q12.7-19.65 11.9-19.13 11.1-18.6 10.63-17.68 10.15-16.75 9.95-15.45 9.75-14.15 9.75-12.65L9.75-12.65Q9.75-11.25 9.8-9.98 9.85-8.7 10.13-7.7 10.4-6.7 10.9-6.1 11.4-5.5 12.3-5.5L12.3-5.5ZM43.55-12.6L43.55-25.1 51.45-25.1 51.45-12.05Q51.45-9.05 51.85-7.05 52.25-5.05 52.8-3.85L52.8-3.85Q53.4-2.4 54.2-1.6L54.2-1.6 47.85 0.4Q47.4-0.05 46.95-0.75L46.95-0.75Q46.55-1.3 46.15-2.18 45.75-3.05 45.5-4.2L45.5-4.2Q44.2-1.85 41.92-0.78 39.65 0.3 37 0.3L37 0.3Q35.05 0.3 33.67-0.33 32.3-0.95 31.42-2.08 30.55-3.2 30.17-4.8 29.8-6.4 29.8-8.4L29.8-8.4 29.8-25.1 37.75-25.1 37.75-9.45Q37.75-7.7 38.17-6.63 38.6-5.55 39.75-5.55L39.75-5.55Q41.15-5.55 42.35-7.43 43.55-9.3 43.55-12.6L43.55-12.6ZM55.55-19.1L55.55-24.9 59.65-24.9 60.5-30.05 67.34-31.55 67.34-24.9 73.25-24.9 72.3-19.1 67.34-19.1 67.34-7.95Q67.34-5.75 69.65-5.75L69.65-5.75Q70.9-5.75 72.05-6L72.05-6Q72.65-6.15 73.25-6.3L73.25-6.3 74.59-1Q73.59-0.65 71.82-0.23 70.05 0.2 67.5 0.2L67.5 0.2Q63.75 0.2 61.62-1.35 59.5-2.9 59.5-6.6L59.5-6.6 59.5-19.1 55.55-19.1ZM87.09-25.6Q93.04-25.6 95.77-22.2 98.49-18.8 98.49-12.8L98.49-12.8Q98.49-9.95 97.77-7.53 97.04-5.1 95.57-3.33 94.09-1.55 91.87-0.53 89.64 0.5 86.69 0.5L86.69 0.5Q83.69 0.5 81.52-0.38 79.34-1.25 77.97-2.9 76.59-4.55 75.92-6.93 75.24-9.3 75.24-12.25L75.24-12.25Q75.24-15.1 75.97-17.55 76.69-20 78.17-21.78 79.64-23.55 81.87-24.58 84.09-25.6 87.09-25.6L87.09-25.6ZM86.64-19.65Q85.74-19.65 85.14-19.13 84.54-18.6 84.22-17.68 83.89-16.75 83.77-15.5 83.64-14.25 83.64-12.8L83.64-12.8Q83.64-11.3 83.79-9.95 83.94-8.6 84.32-7.6 84.69-6.6 85.39-6.03 86.09-5.45 87.14-5.45L87.14-5.45Q88.04-5.45 88.64-6 89.24-6.55 89.57-7.48 89.89-8.4 90.02-9.65 90.14-10.9 90.14-12.3L90.14-12.3Q90.14-13.85 89.99-15.18 89.84-16.5 89.47-17.5 89.09-18.5 88.39-19.07 87.69-19.65 86.64-19.65L86.64-19.65ZM111.39 9.7L103.49 11.05 103.49-13Q103.49-16 103.07-17.98 102.64-19.95 102.09-21.2L102.09-21.2Q101.49-22.6 100.74-23.45L100.74-23.45 107.09-25.45Q107.69-24.85 108.19-24L108.19-24Q108.59-23.3 108.99-22.23 109.39-21.15 109.59-19.75L109.59-19.75Q110.54-22.6 112.22-24.03 113.89-25.45 116.59-25.45L116.59-25.45Q118.94-25.45 120.72-24.55 122.49-23.65 123.67-22.03 124.84-20.4 125.42-18.1 125.99-15.8 125.99-12.95L125.99-12.95Q125.99-10.15 125.09-7.73 124.19-5.3 122.57-3.53 120.94-1.75 118.74-0.73 116.54 0.3 113.99 0.3L113.99 0.3Q112.59 0.3 111.39 0L111.39 0 111.39 9.7ZM115.04-19.65Q114.29-19.65 113.62-19.03 112.94-18.4 112.44-17.38 111.94-16.35 111.67-14.98 111.39-13.6 111.39-12.1L111.39-12.1 111.39-5.85Q111.74-5.75 112.34-5.63 112.94-5.5 113.44-5.5L113.44-5.5Q114.64-5.5 115.44-6.03 116.24-6.55 116.72-7.48 117.19-8.4 117.39-9.68 117.59-10.95 117.59-12.45L117.59-12.45Q117.59-13.85 117.54-15.15 117.49-16.45 117.22-17.45 116.94-18.45 116.44-19.05 115.94-19.65 115.04-19.65L115.04-19.65ZM151.19-24L151.19-12.05Q151.19-9.05 151.59-7.05 151.99-5.05 152.54-3.85L152.54-3.85Q153.14-2.4 153.94-1.6L153.94-1.6 147.59 0.4Q147.04-0.1 146.59-0.85L146.59-0.85Q146.19-1.5 145.81-2.43 145.44-3.35 145.19-4.6L145.19-4.6Q144.34-2.25 142.69-0.98 141.04 0.3 138.34 0.3L138.34 0.3Q135.89 0.3 134.06-0.6 132.24-1.5 131.04-3.13 129.84-4.75 129.26-7.05 128.69-9.35 128.69-12.15L128.69-12.15Q128.69-15 129.61-17.45 130.54-19.9 132.19-21.68 133.84-23.45 136.14-24.45 138.44-25.45 141.24-25.45L141.24-25.45Q142.79-25.45 144.54-25.23 146.29-25 147.74-24.73 149.19-24.45 150.16-24.23 151.14-24 151.19-24L151.19-24ZM139.64-5.5Q140.39-5.5 141.06-6.15 141.74-6.8 142.24-7.9 142.74-9 143.01-10.43 143.29-11.85 143.29-13.45L143.29-13.45 143.29-19.25Q142.94-19.4 142.31-19.53 141.69-19.65 141.24-19.65L141.24-19.65Q140.04-19.65 139.24-19.13 138.44-18.6 137.96-17.68 137.49-16.75 137.29-15.45 137.09-14.15 137.09-12.65L137.09-12.65Q137.09-11.25 137.14-9.98 137.19-8.7 137.46-7.7 137.74-6.7 138.24-6.1 138.74-5.5 139.64-5.5L139.64-5.5ZM168.89-17.9Q168.34-17.9 167.69-17.6 167.04-17.3 166.44-16.68 165.84-16.05 165.44-15.08 165.04-14.1 165.04-12.75L165.04-12.75 165.04 0 157.14 0 157.14-13Q157.14-16 156.71-17.98 156.29-19.95 155.74-21.2L155.74-21.2Q155.14-22.6 154.39-23.45L154.39-23.45 160.74-25.45Q161.14-24.95 161.59-24.3L161.59-24.3Q161.94-23.75 162.34-22.9 162.74-22.05 162.99-20.95L162.99-20.95Q164.24-23.35 165.96-24.4 167.69-25.45 170.04-25.45L170.04-25.45Q171.09-25.45 171.91-25.28 172.74-25.1 173.29-24.9L173.29-24.9 171.24-17.35Q170.89-17.55 170.31-17.73 169.74-17.9 168.89-17.9L168.89-17.9ZM174.43-19.1L174.43-24.9 178.53-24.9 179.38-30.05 186.23-31.55 186.23-24.9 192.13-24.9 191.18-19.1 186.23-19.1 186.23-7.95Q186.23-5.75 188.53-5.75L188.53-5.75Q189.78-5.75 190.93-6L190.93-6Q191.53-6.15 192.13-6.3L192.13-6.3 193.48-1Q192.48-0.65 190.71-0.23 188.93 0.2 186.38 0.2L186.38 0.2Q182.63 0.2 180.51-1.35 178.38-2.9 178.38-6.6L178.38-6.6 178.38-19.1 174.43-19.1ZM204.13-25.55L204.13-25.55Q206.03-25.55 207.66-25.23 209.28-24.9 210.53-24.5L210.53-24.5Q211.98-24 213.18-23.45L213.18-23.45 210.68-17.85Q210.28-18.05 209.66-18.35 209.03-18.65 208.31-18.95 207.58-19.25 206.78-19.45 205.98-19.65 205.23-19.65L205.23-19.65Q204.43-19.65 203.88-19.3 203.33-18.95 203.33-18.2L203.33-18.2Q203.33-17.4 204.36-16.63 205.38-15.85 207.08-15.15L207.08-15.15Q210.08-13.9 211.71-12.18 213.33-10.45 213.33-7.55L213.33-7.55Q213.33-5.95 212.76-4.48 212.18-3 211.06-1.9 209.93-0.8 208.23-0.15 206.53 0.5 204.33 0.5L204.33 0.5Q202.58 0.5 201.06 0.25 199.53 0 198.26-0.38 196.98-0.75 195.98-1.13 194.98-1.5 194.38-1.8L194.38-1.8 196.98-7.55Q197.23-7.45 197.86-7.1 198.48-6.75 199.31-6.4 200.13-6.05 201.06-5.78 201.98-5.5 202.83-5.5L202.83-5.5Q203.88-5.5 204.56-5.9 205.23-6.3 205.23-7.1L205.23-7.1Q205.23-8.05 204.41-8.8 203.58-9.55 202.28-10.05L202.28-10.05Q198.53-11.55 196.91-13.43 195.28-15.3 195.28-18.1L195.28-18.1Q195.28-19.7 195.88-21.05 196.48-22.4 197.63-23.4 198.78-24.4 200.41-24.98 202.03-25.55 204.13-25.55Z" opacity="1" transform="matrix(1,0,0,1,0,0)" fill="#000000" class="undefined-text-0" data-fill-palette-color="primary" id="text-0"></path></svg></g></svg></g></svg></g></svg></g></svg></g></svg></g></svg></g><g mask="url(#da884b47-a241-4fb1-aeb9-5b234dc19e12)"><g transform="matrix(3.22674077524859, 0, 0, 3.22674077524859, 85.25321520939423, 1)"><svg xmlns="http://www.w3.org/2000/svg" xmlns:xlink="http://www.w3.org/1999/xlink" version="1.1" x="0" y="0" viewBox="15.133996963500977 12.00200366973877 69.7340087890625 75.989990234375" enable-background="new 0 0 100 100" xml:space="preserve" height="75.989990234375" width="69.7340087890625" class="icon-none" data-fill-palette-color="accent" id="none"><g fill="#89939e" data-fill-palette-color="accent"><path d="M55.189 56.526c0 1.642 2.098 2.928 4.776 2.928s4.777-1.286 4.777-2.928c0-1.643-2.099-2.929-4.777-2.929S55.189 54.884 55.189 56.526zM63.938 56.526c0 1.15-1.818 2.123-3.972 2.123s-3.973-0.973-3.973-2.123c0-1.151 1.819-2.124 3.973-2.124S63.938 55.375 63.938 56.526z" fill="#000000" data-fill-palette-color="accent"></path><path d="M78.183 70.029c1.987 0 3.544-0.973 3.544-2.216s-1.557-2.217-3.544-2.217-3.544 0.974-3.544 2.217S76.195 70.029 78.183 70.029zM78.183 66.402c1.614 0 2.738 0.743 2.738 1.411 0 0.667-1.124 1.411-2.738 1.411s-2.739-0.744-2.739-1.411C75.443 67.146 76.568 66.402 78.183 66.402z" fill="#000000" data-fill-palette-color="accent"></path><path d="M59.966 80.547c1.987 0 3.544-0.974 3.544-2.217 0-1.242-1.557-2.216-3.544-2.216-1.988 0-3.545 0.974-3.545 2.216C56.421 79.573 57.978 80.547 59.966 80.547zM59.966 76.919c1.614 0 2.739 0.743 2.739 1.411s-1.125 1.412-2.739 1.412-2.739-0.744-2.739-1.412S58.352 76.919 59.966 76.919z" fill="#000000" data-fill-palette-color="accent"></path><path d="M82.827 64.899l-14.76-8.521-0.021-0.183c-0.001-0.005-0.003-0.011-0.004-0.017-0.288-2.549-3.73-4.5-8.077-4.5-0.012 0-0.023 0.001-0.035 0.001L46.594 43.98V26.907c1.258-2.803 2-5.754 2-8.475 0-0.004-0.001-0.009-0.001-0.013 0-0.009 0-0.017-0.001-0.025 0-0.009-0.002-0.018-0.003-0.027-0.002-0.009-0.003-0.018-0.005-0.027-0.001-0.007-0.004-0.015-0.006-0.022-0.003-0.009-0.006-0.017-0.009-0.026-0.003-0.009-0.006-0.018-0.01-0.026-0.003-0.008-0.008-0.015-0.011-0.022-0.002-0.004-0.003-0.008-0.005-0.012-0.002-0.004-0.006-0.007-0.008-0.011-0.004-0.007-0.009-0.014-0.014-0.021-0.005-0.007-0.011-0.015-0.017-0.022-0.006-0.007-0.011-0.014-0.018-0.021-0.006-0.005-0.011-0.011-0.016-0.017-0.007-0.006-0.014-0.012-0.021-0.018s-0.014-0.012-0.022-0.017c-0.007-0.005-0.014-0.009-0.021-0.014-0.004-0.002-0.007-0.005-0.011-0.007l-1.798-1.038v-0.281c0-0.819-0.292-1.448-0.824-1.771-0.005-0.003-0.011-0.006-0.017-0.009-0.003-0.002-0.006-0.005-0.011-0.007l-3.554-2.052c-0.513-0.297-1.169-0.266-1.846 0.085 0 0 0 0 0 0-0.011 0.005-0.022 0.012-0.034 0.016-0.015 0.007-0.03 0.013-0.046 0.02l0 0c-0.196 0.075-0.485 0.061-0.644-0.031l-1.667-0.962c-0.003-0.001-0.008-0.002-0.011-0.005-0.013-0.007-0.027-0.013-0.042-0.019-0.011-0.004-0.021-0.009-0.033-0.012-0.013-0.004-0.026-0.006-0.04-0.009-0.012-0.002-0.025-0.005-0.037-0.006-0.014-0.001-0.027-0.001-0.04-0.001-0.013 0-0.025 0-0.037 0.001-0.013 0.001-0.026 0.003-0.039 0.006-0.013 0.002-0.025 0.004-0.038 0.009-0.011 0.003-0.022 0.008-0.034 0.012-0.014 0.006-0.027 0.012-0.041 0.019-0.004 0.002-0.007 0.003-0.011 0.005l-2.666 1.54c-0.003 0.002-0.007 0.005-0.01 0.008-0.007 0.004-0.014 0.009-0.021 0.013-0.008 0.006-0.015 0.012-0.022 0.018-0.007 0.005-0.014 0.011-0.02 0.018-0.006 0.005-0.011 0.01-0.016 0.016-0.006 0.007-0.012 0.014-0.018 0.021-0.006 0.007-0.012 0.014-0.017 0.021-0.005 0.007-0.01 0.014-0.014 0.021-0.003 0.003-0.005 0.007-0.008 0.01-0.002 0.004-0.003 0.008-0.005 0.013-0.004 0.007-0.008 0.015-0.012 0.022-0.004 0.009-0.007 0.018-0.01 0.026-0.003 0.008-0.006 0.017-0.009 0.025-0.002 0.008-0.004 0.015-0.006 0.022-0.002 0.009-0.003 0.018-0.005 0.026-0.001 0.009-0.003 0.019-0.004 0.028 0 0.008-0.001 0.017-0.001 0.025 0 0.004 0 0.009 0 0.013 0 5.029-3.492 11.148-7.823 13.77l-8.014-4.627c-0.003-0.002-0.008-0.003-0.011-0.005-0.013-0.007-0.027-0.013-0.041-0.019-0.012-0.004-0.022-0.009-0.034-0.013-0.013-0.004-0.026-0.006-0.039-0.008-0.012-0.003-0.025-0.006-0.038-0.007-0.013-0.001-0.026-0.001-0.039-0.001-0.013 0-0.026 0-0.038 0.001-0.013 0.001-0.026 0.004-0.039 0.007-0.013 0.002-0.026 0.004-0.039 0.008-0.011 0.003-0.022 0.008-0.034 0.013-0.014 0.005-0.027 0.012-0.041 0.019-0.004 0.002-0.008 0.003-0.012 0.005l-2.666 1.539c-0.003 0.002-0.007 0.006-0.01 0.008-0.007 0.004-0.015 0.008-0.021 0.014-0.008 0.005-0.016 0.012-0.023 0.018-0.007 0.005-0.014 0.011-0.02 0.017-0.006 0.005-0.011 0.011-0.016 0.016-0.006 0.007-0.012 0.014-0.018 0.021-0.006 0.007-0.012 0.014-0.017 0.021-0.005 0.007-0.01 0.014-0.014 0.021-0.002 0.004-0.005 0.007-0.008 0.011s-0.003 0.008-0.005 0.012c-0.004 0.008-0.008 0.016-0.012 0.023-0.004 0.008-0.007 0.017-0.01 0.026-0.003 0.008-0.006 0.017-0.009 0.026-0.001 0.007-0.004 0.015-0.006 0.022-0.002 0.009-0.003 0.018-0.005 0.027-0.001 0.009-0.003 0.019-0.004 0.027-0.001 0.008-0.001 0.017-0.001 0.025 0 0.005-0.001 0.009-0.001 0.014 0 1.037 0.11 2.012 0.324 2.9-0.473 0.784-0.769 1.681-0.769 2.487v33.091c0 0.005 0.001 0.008 0.001 0.013 0 0.015 0.002 0.028 0.004 0.044 0.002 0.012 0.003 0.024 0.006 0.036 0.003 0.013 0.007 0.025 0.012 0.037 0.004 0.013 0.008 0.024 0.013 0.037 0.005 0.012 0.012 0.021 0.019 0.033 0.006 0.012 0.013 0.022 0.02 0.032 0.007 0.012 0.016 0.021 0.025 0.03 0.009 0.011 0.017 0.02 0.026 0.029 0.009 0.008 0.019 0.016 0.028 0.023 0.012 0.009 0.023 0.018 0.036 0.025 0.003 0.002 0.007 0.005 0.01 0.008l39.988 23.087c1.28 0.739 2.962 1.109 4.645 1.109s3.364-0.37 4.644-1.109L82.827 76.37c1.297-0.749 2.041-1.811 2.041-2.913v-5.644C84.868 66.694 84.144 65.659 82.827 64.899zM68.437 66.944c0.021 0.189 0.021 0.381 0 0.571-0.292 2.619-4.341 4.606-9.027 4.434-3.043-0.113-5.765-1.147-7.103-2.7-0.628-0.729-0.9-1.504-0.812-2.305l0.957-8.577c1.188 1.778 4.066 3.006 7.514 3.006s6.325-1.228 7.514-3.006L68.437 66.944zM67.25 56.313l0.001 0.008c0.007 0.067 0.01 0.136 0.01 0.205 0 2.228-3.273 4.041-7.295 4.041-4.022 0-7.295-1.813-7.295-4.041 0-0.069 0.003-0.138 0.009-0.205l0.001-0.008c0.201-2.13 3.392-3.829 7.285-3.829C63.858 52.484 67.05 54.184 67.25 56.313zM51.888 56.179c-0.001 0.006-0.003 0.012-0.003 0.017l-1.19 10.66c-0.113 1.017 0.234 2.027 1.003 2.919 1.502 1.742 4.373 2.856 7.682 2.979 0.207 0.009 0.411 0.012 0.615 0.012 4.907 0 8.912-2.203 9.242-5.16 0.028-0.248 0.028-0.501 0-0.749l-1.058-9.484 14.246 8.225c1.056 0.611 1.639 1.398 1.639 2.218 0 0.818-0.583 1.606-1.639 2.216L64.208 80.547c-2.339 1.351-6.146 1.351-8.484 0l-35.83-20.686 11.969-6.911 9.956 5.748c0.003 0.024 0.005 0.05 0.005 0.074v0.979c0 0.223 0.181 0.402 0.403 0.402s0.402-0.18 0.402-0.402v-0.979c0-0.041-0.006-0.081-0.009-0.121l2.069-1.195c0.261 0.32 0.757 0.519 1.314 0.519 0.223 0 0.402-0.181 0.402-0.402 0-0.223-0.18-0.403-0.402-0.403-0.345 0-0.617-0.117-0.698-0.227l0 0c-0.032-0.043-0.058-0.097-0.076-0.157l0 0-2.991-9.825 3.954-2.283 12.269 7.083C54.846 52.152 52.142 53.933 51.888 56.179zM21.415 28.973c0.007-0.005 0.014-0.009 0.022-0.013 0.009-0.004 0.019-0.009 0.028-0.012h0c0.13-0.05 0.302-0.06 0.449-0.035 0.064 3.364 1.257 5.884 3.383 7.112l4.11 2.373c0 0 0 0 0 0 0.631 0.364 1.32 0.598 2.053 0.708v13.147l-11.969 6.911V32.413C19.491 31.19 20.354 29.646 21.415 28.973zM31.292 35.133c0.699 0.404 1.49 0.604 2.341 0.604 1.197 0 2.515-0.396 3.873-1.181 4.576-2.641 8.308-9.033 8.416-14.35l1.848-1.067c-0.314 6.662-4.978 14.514-10.666 17.799-1.857 1.072-3.63 1.545-5.178 1.411-0.021-0.003-0.042-0.006-0.064-0.006-0.003 0-0.007 0.001-0.01 0.001-0.739-0.074-1.425-0.287-2.043-0.643-1.879-1.085-2.932-3.379-2.982-6.469l1.88-1.085C28.853 32.488 29.756 34.246 31.292 35.133zM44.366 56.714l-1.95 1.126-5.889-19.342c-0.031-0.104-0.074-0.2-0.125-0.288 0.365-0.17 0.734-0.361 1.104-0.575 0.299-0.173 0.595-0.361 0.888-0.558 0.008 0.039 0.017 0.077 0.028 0.115 0 0 0 0 0 0L44.366 56.714zM32.266 39.175c0.059 0.001 0.118 0.005 0.177 0.005 1.009 0 2.085-0.218 3.2-0.647 0.04 0.037 0.085 0.101 0.115 0.198l5.739 18.852-9.231-5.33V39.175zM26.023 31.237c0.031 1.986 0.456 3.679 1.232 4.988L25.7 35.328c-1.753-1.012-2.814-3.174-2.966-5.989L26.023 31.237zM45.79 43.98l-3.792 2.189-2.805-9.212 0 0c-0.045-0.148-0.037-0.319 0.014-0.455 2.603-1.967 4.907-4.812 6.583-7.954V43.98zM44.34 15.744c0.402-0.191 0.76-0.215 1.013-0.062 0.247 0.15 0.397 0.464 0.43 0.895L44.34 15.744zM40.548 13.8L40.548 13.8 40.548 13.8c0.03-0.012 0.06-0.024 0.089-0.037 0.026-0.012 0.051-0.024 0.075-0.037l0 0c0.425-0.22 0.806-0.257 1.073-0.103l2.325 1.342c-0.071 0.031-0.143 0.062-0.214 0.099 0 0 0 0 0 0v0h0l0 0c-0.065 0.034-0.125 0.074-0.178 0.12 0 0 0 0-0.001 0.001-0.193 0.168-0.287 0.388-0.265 0.617 0.024 0.244 0.176 0.459 0.428 0.605 0 0 0 0 0 0l3.506 2.024-1.861 1.075-9.637-5.563 1.861-1.075 1.465 0.846c0.215 0.124 0.484 0.187 0.756 0.187C40.169 13.902 40.368 13.868 40.548 13.8zM35.464 14.627l9.654 5.574c-0.105 5.061-3.658 11.144-8.014 13.659-2.066 1.193-3.987 1.397-5.41 0.576-1.422-0.822-2.206-2.588-2.206-4.973 0-0.004-0.001-0.009-0.001-0.013 0-0.008-0.001-0.017-0.001-0.025-0.001-0.009-0.002-0.018-0.004-0.027s-0.003-0.018-0.005-0.027c-0.001-0.007-0.003-0.015-0.006-0.022-0.003-0.008-0.005-0.017-0.009-0.025-0.003-0.009-0.006-0.018-0.01-0.026-0.003-0.008-0.007-0.015-0.011-0.022-0.002-0.004-0.003-0.008-0.005-0.012-0.002-0.004-0.005-0.007-0.008-0.011-0.004-0.007-0.009-0.015-0.014-0.021-0.005-0.007-0.011-0.015-0.017-0.021-0.006-0.007-0.011-0.014-0.018-0.021-0.005-0.006-0.011-0.011-0.016-0.016-0.006-0.006-0.014-0.012-0.021-0.018-0.007-0.006-0.015-0.012-0.022-0.018-0.007-0.005-0.014-0.009-0.021-0.014-0.004-0.002-0.007-0.005-0.011-0.008l-1.64-0.947C31.828 25.422 35.177 19.62 35.464 14.627zM16.4 25.682l1.001 0.578c-0.305 0.198-0.594 0.451-0.857 0.742C16.473 26.58 16.424 26.139 16.4 25.682zM84.063 73.457c0 0.807-0.598 1.614-1.639 2.216L64.208 86.19c-2.339 1.351-6.146 1.351-8.484 0L15.937 63.22V30.361c0-1.224 0.863-2.767 1.924-3.44l0 0c0.055-0.035 0.104-0.072 0.149-0.111l0 0 0 0c0.193-0.169 0.287-0.388 0.265-0.618-0.024-0.244-0.176-0.459-0.428-0.605l-1.063-0.613 1.861-1.075 8.021 4.631c0 0 0 0 0 0l1.615 0.932-1.861 1.075-3.909-2.257c-0.011-0.006-0.024-0.012-0.036-0.018-0.004-0.001-0.007-0.004-0.011-0.005-0.368-0.191-0.876-0.219-1.286-0.063 0 0 0 0 0 0l0 0c-0.036 0.014-0.071 0.03-0.105 0.047-0.031 0.016-0.06 0.032-0.088 0.049 0 0 0 0-0.001 0 0 0 0 0 0 0-1.288 0.818-2.297 2.628-2.297 4.121v27.448c0 0.005 0.001 0.008 0.001 0.013 0 0.009 0.001 0.017 0.001 0.024 0.001 0.01 0.003 0.019 0.004 0.028 0.001 0.009 0.003 0.019 0.005 0.026 0.002 0.009 0.004 0.016 0.006 0.023 0.003 0.008 0.006 0.017 0.009 0.025 0.003 0.008 0.006 0.018 0.01 0.025 0.003 0.008 0.007 0.015 0.011 0.022 0.002 0.004 0.003 0.008 0.006 0.012 0.001 0.004 0.004 0.006 0.006 0.009 0.004 0.008 0.01 0.017 0.015 0.023 0.007 0.011 0.016 0.021 0.024 0.03 0.006 0.008 0.012 0.016 0.019 0.022 0.002 0.003 0.005 0.005 0.008 0.007 0.009 0.008 0.019 0.016 0.028 0.022 0.011 0.009 0.023 0.019 0.035 0.025 0.004 0.003 0.007 0.006 0.011 0.008l0.003 0.002c0 0 0 0 0 0l36.43 21.033c1.28 0.739 2.962 1.108 4.645 1.108s3.364-0.369 4.644-1.108l18.218-10.517c0.5-0.289 0.914-0.618 1.236-0.976V73.457z" fill="#000000" data-fill-palette-color="accent"></path></g></svg></g></g></svg></g><defs><mask id="da884b47-a241-4fb1-aeb9-5b234dc19e12"><rect width="640" height="400" fill="white"></rect><rect width="348.05760000000004" height="93.60193515133584" fill="black" y="76.79903242433207" x="23.731199999999973" id="transform-me"></rect></mask></defs></svg><rect width="395.52" height="247.2" fill="none" stroke="none" visibility="hidden"></rect></g></svg></g></svg>